<svg width="15" height="23" viewBox="0 0 15 23" fill="none" xmlns="http://www.w3.org/2000/svg">
<path fill-rule="evenodd" clip-rule="evenodd" d="M11.9 0H3.1C1.01588 0 0 1.91605 0 3.35714V19.6429C0 21.084 1.01588 23 3.1 23H11.9C13.9841 23 15 21.084 15 19.6429V3.35714C15 1.91605 13.9841 0 11.9 0ZM2 3.35714C2 2.60761 2.49249 2 3.1 2H11.9C12.5075 2 13 2.60761 13 3.35714V19.6429C13 20.3924 12.5075 21 11.9 21H3.1C2.49249 21 2 20.3924 2 19.6429V3.35714ZM7.5 18C8.32843 18 9 17.3284 9 16.5C9 15.6716 8.32843 15 7.5 15C6.67157 15 6 15.6716 6 16.5C6 17.3284 6.67157 18 7.5 18Z" fill="#C4C4C4"/>
</svg>
