<svg width="80" height="57" viewBox="0 0 80 57" fill="none" xmlns="http://www.w3.org/2000/svg">
<path d="M69.6379 22.0364C69.6379 34.2086 59.8542 44.0765 47.7859 44.0765C35.7176 44.0765 25.9375 34.2086 25.9375 22.0364C25.9375 9.86427 35.7212 0 47.7895 0C59.8578 0 69.6379 9.86787 69.6379 22.0364Z" fill="#FFFF00"/>
<path d="M0 32.6659V4.86328H10.7104C13.7043 4.86328 16.0709 5.6901 17.8173 7.34732C19.5638 9.00096 20.437 11.219 20.437 14.0014C20.437 16.7802 19.5638 18.9982 17.8173 20.6555C16.0709 22.3091 13.7007 23.1359 10.7104 23.1359H4.33048V32.6695H0V32.6659ZM4.33048 19.16H10.7496C12.4033 19.16 13.69 18.7035 14.6096 17.7904C15.5291 16.8773 15.9889 15.6119 15.9889 13.9978C15.9889 12.3837 15.5291 11.1183 14.6096 10.2052C13.69 9.29214 12.4033 8.83559 10.7496 8.83559H4.33048V19.16Z" fill="#1C1C00"/>
<path d="M33.2656 13.0234C34.3669 13.0234 35.315 13.1708 36.0991 13.462L35.4682 17.4739C34.5736 17.1288 33.6042 16.9562 32.5527 16.9562C31.1627 16.9562 30.0186 17.4271 29.1276 18.3654C28.2365 19.3036 27.791 20.6373 27.791 22.3557V32.6405H23.5781V13.4189H27.791V15.6045C29.0527 13.8826 30.8776 13.0234 33.2656 13.0234Z" fill="#1C1C00"/>
<mask id="mask0_1_948" style="mask-type:alpha" maskUnits="userSpaceOnUse" x="25" y="0" width="45" height="45">
<path d="M69.6301 22.0364C69.6301 34.2086 59.8464 44.0765 47.7781 44.0765C35.7098 44.0765 25.9297 34.2086 25.9297 22.0364C25.9297 9.86427 35.7134 0 47.7817 0C59.85 0 69.6301 9.86787 69.6301 22.0364Z" fill="#FFFF00"/>
</mask>
<g mask="url(#mask0_1_948)">
<path d="M33.2812 13.0234C34.3825 13.0234 35.3306 13.1708 36.1147 13.462L35.4838 17.4739C34.5892 17.1288 33.6198 16.9562 32.5684 16.9562C31.1783 16.9562 30.0342 17.4271 29.1432 18.3654C28.2521 19.3036 27.8066 20.6373 27.8066 22.3557V32.6405H23.5938V13.4189H27.8066V15.6045C29.0683 13.8826 30.8932 13.0234 33.2812 13.0234Z" fill="#1C1C00"/>
<path d="M54.9695 30.2787C53.052 32.1193 50.6497 33.0396 47.7627 33.0396C44.8758 33.0396 42.4735 32.1193 40.556 30.2787C38.6385 28.4382 37.6797 26.0476 37.6797 23.1106C37.6797 20.0909 38.6313 17.6572 40.5346 15.8023C42.4379 13.9509 44.8472 13.0234 47.7592 13.0234C50.6462 13.0234 53.0484 13.9509 54.966 15.8023C56.8835 17.6572 57.8422 20.0909 57.8422 23.1106C57.8422 26.0512 56.8835 28.4382 54.9695 30.2787ZM47.7627 29.229C49.3916 29.229 50.7567 28.6682 51.858 27.5395C52.9593 26.4143 53.5118 24.926 53.5118 23.0711C53.5118 21.1658 52.9664 19.6488 51.8758 18.5236C50.7852 17.3984 49.4165 16.834 47.7627 16.834C46.109 16.834 44.7368 17.3984 43.6461 18.5236C42.5555 19.6488 42.0102 21.1658 42.0102 23.0711C42.0102 24.926 42.5555 26.4143 43.6461 27.5395C44.7368 28.6646 46.109 29.229 47.7627 29.229Z" fill="#1C1C00"/>
</g>
<path d="M7.09271 52.8083C5.06113 52.8083 3.37171 52.1288 2.02445 50.77C0.67363 49.4111 0 47.6461 0 45.4784C0 43.3107 0.670066 41.5312 2.00663 40.1436C3.3432 38.756 5.03975 38.0586 7.08915 38.0586C8.61462 38.0586 9.95119 38.4289 11.1024 39.1658C12.2536 39.9028 13.0057 40.9129 13.3585 42.1963L11.2771 42.9368C11.081 42.11 10.6034 41.4485 9.8407 40.956C9.07796 40.4635 8.19048 40.2155 7.17469 40.2155C5.80605 40.2155 4.66907 40.7044 3.76021 41.6786C2.85134 42.6528 2.39869 43.911 2.39869 45.446C2.39869 47.0026 2.85134 48.2644 3.76021 49.2278C4.66907 50.1948 5.81674 50.6765 7.2032 50.6765C8.20117 50.6765 9.07796 50.4249 9.8407 49.9216C10.6034 49.4183 11.081 48.7533 11.2771 47.9265L13.3585 48.6346C13.0057 49.936 12.2536 50.9533 11.1024 51.6939C9.95119 52.438 8.61462 52.8083 7.09271 52.8083Z" fill="#1C1C00"/>
<path d="M29.6319 56.9997V52.5061H16.6797V38.3496H19.0249V50.3492H26.7022V38.3496H29.0438V50.3492H31.9736V56.9997H29.6319Z" fill="#1C1C00"/>
<path d="M40.3212 52.8047C38.2896 52.8047 36.6073 52.1288 35.2814 50.7808C33.952 49.4327 33.2891 47.6533 33.2891 45.446C33.2891 43.2388 33.9484 41.4557 35.2672 40.0969C36.5859 38.738 38.2504 38.0586 40.2642 38.0586C42.2565 38.0586 43.8818 38.7093 45.1435 40.0106C46.4052 41.3119 47.0325 43.0339 47.0325 45.1836C47.0325 45.4209 47.0112 45.6761 46.9719 45.9529H35.6343C35.7127 47.4519 36.1832 48.6418 37.0421 49.5298C37.9011 50.4177 38.9953 50.8599 40.3248 50.8599C41.3405 50.8599 42.2209 50.6082 42.9622 50.1049C43.7036 49.6017 44.1741 48.9186 44.3701 48.0523L46.4516 48.7317C46.0987 50.0115 45.3609 51.0144 44.2382 51.7334C43.1119 52.4452 41.8075 52.8047 40.3212 52.8047ZM35.7519 44.0872H44.7194C44.5626 42.8865 44.085 41.9087 43.283 41.161C42.4811 40.4132 41.4867 40.0394 40.2927 40.0394C39.1201 40.0394 38.1257 40.4024 37.3023 41.1322C36.4826 41.8619 35.9658 42.8469 35.7519 44.0872Z" fill="#1C1C00"/>
<path d="M50.6172 52.5061V38.3496H52.9624V44.3782H60.6397V38.3496H62.9813V52.5061H60.6397V46.5351H52.9624V52.5061H50.6172Z" fill="#1C1C00"/>
<path d="M79.501 50.7664C79.6578 50.7664 79.8218 50.7484 80 50.7053V52.7148C79.7077 52.7723 79.3727 52.8047 79.002 52.8047C78.2785 52.8047 77.6726 52.6213 77.1843 52.2583C76.696 51.8952 76.4037 51.3775 76.3039 50.7053C75.2882 52.1037 73.7235 52.8047 71.617 52.8047C70.1343 52.8047 68.9261 52.4308 67.9994 51.6831C67.0692 50.9354 66.6094 49.9 66.6094 48.5807C66.6094 47.2794 67.0585 46.2872 67.9566 45.597C68.8548 44.9068 69.9775 44.4934 71.3248 44.3568L76.279 43.796V43.53C76.279 42.4084 75.9475 41.5384 75.281 40.9273C74.6181 40.3162 73.7591 40.0106 72.7041 40.0106C71.8452 40.0106 71.1181 40.2335 70.5228 40.6756C69.9276 41.1178 69.532 41.7146 69.336 42.4623L67.2545 41.9914C67.5681 40.7116 68.2311 39.7338 69.2469 39.0652C70.2627 38.3965 71.4531 38.0586 72.8217 38.0586C74.6003 38.0586 76.0117 38.5259 77.056 39.4642C78.1003 40.3988 78.6242 41.7361 78.6242 43.4688V49.9108C78.6242 50.4824 78.9165 50.7664 79.501 50.7664ZM72.3798 50.9138C73.5702 50.8347 74.5183 50.4249 75.224 49.6879C75.9261 48.9474 76.279 47.9408 76.279 46.6575V45.6545L71.7062 46.1866C69.8706 46.3843 68.951 47.1715 68.951 48.552C68.951 49.3608 69.2896 49.9719 69.9633 50.3853C70.6369 50.7988 71.4424 50.9713 72.3798 50.9138Z" fill="#1C1C00"/>
</svg>
