<svg width="70" height="55" viewBox="0 0 70 55" fill="none" xmlns="http://www.w3.org/2000/svg">
<path d="M0.5 8C0.5 3.85786 3.85786 0.5 8 0.5H62C66.1421 0.5 69.5 3.85786 69.5 8V47C69.5 51.1421 66.1421 54.5 62 54.5H0.5V8Z" fill="white" stroke="#DDDDDD"/>
<path d="M54.0417 22.7584C54.0417 29.8057 48.4161 35.5188 41.4768 35.5188C34.5376 35.5188 28.9141 29.8057 28.9141 22.7584C28.9141 15.7111 34.5396 10 41.4789 10C48.4181 10 54.0417 15.7132 54.0417 22.7584Z" fill="#FFFF00"/>
<path d="M14 28.9103V12.8135H20.1584C21.8799 12.8135 23.2407 13.2922 24.2449 14.2517C25.2491 15.2091 25.7512 16.4932 25.7512 18.1041C25.7512 19.713 25.2491 20.9972 24.2449 21.9566C23.2407 22.914 21.8779 23.3927 20.1584 23.3927H16.49V28.9123H14V28.9103ZM16.49 21.0908H20.181C21.1319 21.0908 21.8717 20.8265 22.4005 20.2978C22.9292 19.7692 23.1936 19.0366 23.1936 18.1021C23.1936 17.1676 22.9292 16.4349 22.4005 15.9063C21.8717 15.3776 21.1319 15.1133 20.181 15.1133H16.49V21.0908Z" fill="#1C1C00"/>
<path d="M33.1279 17.5386C33.7611 17.5386 34.3063 17.6239 34.7571 17.7925L34.3944 20.1152C33.88 19.9154 33.3226 19.8155 32.718 19.8155C31.9187 19.8155 31.2609 20.0882 30.7485 20.6314C30.2362 21.1746 29.98 21.9468 29.98 22.9416V28.8962H27.5576V17.7675H29.98V19.0329C30.7055 18.036 31.7548 17.5386 33.1279 17.5386Z" fill="#1C1C00"/>
<mask id="mask0_2_3216" style="mask-type:alpha" maskUnits="userSpaceOnUse" x="28" y="10" width="27" height="26">
<path d="M54.0368 22.7584C54.0368 29.8057 48.4112 35.5188 41.472 35.5188C34.5327 35.5188 28.9092 29.8057 28.9092 22.7584C28.9092 15.7111 34.5348 10 41.474 10C48.4133 10 54.0368 15.7132 54.0368 22.7584Z" fill="#FFFF00"/>
</mask>
<g mask="url(#mask0_2_3216)">
<path d="M33.1367 17.5386C33.7699 17.5386 34.3151 17.6239 34.7659 17.7925L34.4032 20.1152C33.8888 19.9154 33.3314 19.8155 32.7268 19.8155C31.9275 19.8155 31.2697 20.0882 30.7573 20.6314C30.245 21.1746 29.9888 21.9468 29.9888 22.9416V28.8962H27.5664V17.7675H29.9888V19.0329C30.7143 18.036 31.7636 17.5386 33.1367 17.5386Z" fill="#1C1C00"/>
<path d="M45.6057 27.5288C44.5031 28.5944 43.1218 29.1273 41.4618 29.1273C39.8018 29.1273 38.4205 28.5944 37.3179 27.5288C36.2153 26.4632 35.6641 25.0791 35.6641 23.3787C35.6641 21.6304 36.2112 20.2214 37.3056 19.1474C38.4 18.0755 39.7854 17.5386 41.4597 17.5386C43.1198 17.5386 44.501 18.0755 45.6036 19.1474C46.7062 20.2214 47.2575 21.6304 47.2575 23.3787C47.2575 25.0812 46.7062 26.4632 45.6057 27.5288ZM41.4618 26.9211C42.3984 26.9211 43.1833 26.5964 43.8165 25.9429C44.4498 25.2914 44.7675 24.4298 44.7675 23.3558C44.7675 22.2527 44.4539 21.3744 43.8268 20.723C43.1997 20.0715 42.4127 19.7448 41.4618 19.7448C40.5109 19.7448 39.7219 20.0715 39.0947 20.723C38.4676 21.3744 38.1541 22.2527 38.1541 23.3558C38.1541 24.4298 38.4676 25.2914 39.0947 25.9429C39.7219 26.5943 40.5109 26.9211 41.4618 26.9211Z" fill="#1C1C00"/>
</g>
<path d="M18.0783 40.5733C16.9101 40.5733 15.9387 40.1799 15.1641 39.3932C14.3873 38.6064 14 37.5845 14 36.3295C14 35.0745 14.3853 34.0442 15.1538 33.2408C15.9223 32.4375 16.8978 32.0337 18.0762 32.0337C18.9534 32.0337 19.7219 32.2481 20.3839 32.6747C21.0458 33.1014 21.4782 33.6862 21.6811 34.4293L20.4843 34.858C20.3716 34.3793 20.0969 33.9964 19.6584 33.7112C19.2198 33.4261 18.7095 33.2825 18.1254 33.2825C17.3385 33.2825 16.6847 33.5655 16.1621 34.1296C15.6395 34.6936 15.3792 35.422 15.3792 36.3108C15.3792 37.212 15.6395 37.9425 16.1621 38.5003C16.6847 39.0602 17.3446 39.3391 18.1418 39.3391C18.7157 39.3391 19.2198 39.1934 19.6584 38.902C20.0969 38.6106 20.3716 38.2256 20.4843 37.7469L21.6811 38.1569C21.4782 38.9103 21.0458 39.4993 20.3839 39.9281C19.7219 40.3589 18.9534 40.5733 18.0783 40.5733Z" fill="#1C1C00"/>
<path d="M31.0373 42.9999V40.3983H23.5898V32.2021H24.9383V39.1495H29.3527V32.2021H30.6992V39.1495H32.3838V42.9999H31.0373Z" fill="#1C1C00"/>
<path d="M37.1851 40.5712C36.0169 40.5712 35.0496 40.1799 34.2872 39.3994C33.5228 38.6189 33.1416 37.5887 33.1416 36.3108C33.1416 35.0328 33.5207 34.0005 34.279 33.2138C35.0373 32.4271 35.9944 32.0337 37.1523 32.0337C38.2979 32.0337 39.2324 32.4104 39.9579 33.1638C40.6834 33.9173 41.0441 34.9142 41.0441 36.1588C41.0441 36.2962 41.0318 36.444 41.0092 36.6042H34.4901C34.5352 37.4721 34.8057 38.161 35.2996 38.6751C35.7935 39.1892 36.4227 39.4452 37.1871 39.4452C37.7712 39.4452 38.2774 39.2995 38.7037 39.0081C39.1299 38.7168 39.4005 38.3213 39.5132 37.8197L40.71 38.2131C40.5071 38.954 40.0829 39.5347 39.4373 39.951C38.7897 40.3631 38.0397 40.5712 37.1851 40.5712ZM34.5577 35.524H39.714C39.6238 34.8289 39.3492 34.2628 38.8881 33.8299C38.427 33.3969 37.8552 33.1805 37.1687 33.1805C36.4944 33.1805 35.9226 33.3907 35.4492 33.8132C34.9779 34.2357 34.6807 34.806 34.5577 35.524Z" fill="#1C1C00"/>
<path d="M43.1045 40.3983V32.2021H44.453V35.6925H48.8674V32.2021H50.2138V40.3983H48.8674V36.9413H44.453V40.3983H43.1045Z" fill="#1C1C00"/>
<path d="M59.7134 39.3911C59.8036 39.3911 59.8979 39.3807 60.0004 39.3557V40.5192C59.8323 40.5525 59.6397 40.5712 59.4265 40.5712C59.0105 40.5712 58.6621 40.465 58.3813 40.2548C58.1006 40.0446 57.9325 39.7449 57.8751 39.3557C57.2911 40.1653 56.3914 40.5712 55.1802 40.5712C54.3276 40.5712 53.6329 40.3547 53.1 39.9218C52.5652 39.4889 52.3008 38.8895 52.3008 38.1257C52.3008 37.3722 52.559 36.7978 53.0755 36.3982C53.5919 35.9986 54.2375 35.7592 55.0121 35.6801L57.8608 35.3554V35.2014C57.8608 34.5521 57.6702 34.0484 57.287 33.6946C56.9058 33.3407 56.4119 33.1638 55.8052 33.1638C55.3113 33.1638 54.8933 33.2929 54.551 33.5489C54.2088 33.8049 53.9813 34.1504 53.8686 34.5833L52.6717 34.3106C52.8521 33.5697 53.2333 33.0036 53.8173 32.6165C54.4014 32.2293 55.0859 32.0337 55.8729 32.0337C56.8955 32.0337 57.7071 32.3043 58.3076 32.8475C58.908 33.3886 59.2093 34.1629 59.2093 35.1661V38.8957C59.2093 39.2267 59.3773 39.3911 59.7134 39.3911ZM55.6188 39.4764C56.3032 39.4306 56.8484 39.1934 57.2542 38.7667C57.6579 38.338 57.8608 37.7552 57.8608 37.0122V36.4315L55.2314 36.7395C54.176 36.854 53.6472 37.3098 53.6472 38.109C53.6472 38.5773 53.8419 38.9311 54.2293 39.1705C54.6166 39.4098 55.0798 39.5097 55.6188 39.4764Z" fill="#1C1C00"/>
</svg>
